<svg width="28" height="28" viewBox="0 0 38 38" fill="none" xmlns="http://www.w3.org/2000/svg">
<path d="M9.32002 0.51123C4.47005 0.51123 0.52002 4.46126 0.52002 9.31123V28.6712C0.52002 33.5212 4.47005 37.4712 9.32002 37.4712H28.68C33.53 37.4712 37.48 33.5212 37.48 28.6712V9.31123C37.48 4.46126 33.53 0.51123 28.68 0.51123H9.32002ZM12.8452 7.58904C13.3978 7.6128 13.9053 7.92417 14.2116 8.40201C14.5601 8.94585 15.1009 9.78988 15.8049 10.8908C16.4473 11.8948 16.4921 13.1917 15.9183 14.2389L14.6292 16.0728C14.2808 16.5691 14.2113 17.2044 14.4453 17.764C14.8097 18.6352 15.5159 19.9742 16.7708 21.229C18.0257 22.4839 19.3646 23.1902 20.2358 23.5545C20.7955 23.7886 21.4307 23.7191 21.9271 23.3706L23.761 22.0815C24.8082 21.5078 26.105 21.5535 27.1091 22.195C28.21 22.899 29.054 23.4398 29.5978 23.7883C30.0757 24.0945 30.387 24.602 30.4108 25.1547C30.5463 28.291 28.1165 29.5615 27.4099 29.5615C26.9206 29.5615 21.0384 30.2301 14.4041 23.5958C7.76976 16.9614 8.4383 11.0793 8.4383 10.59C8.4383 9.88334 9.70886 7.45352 12.8452 7.58904Z" fill="white"/>
</svg>
